<svg aria-hidden="true" style="position:absolute;width:0;height:0;overflow:hidden" xmlns="http://www.w3.org/2000/svg">
  <defs>
  <symbol id="shevron-down" width="20" height="20" viewBox="0 0 20 20" fill="none">
  <path d="M5 7.5L10 12.5L15 7.5" stroke="#010101" stroke-width="2" stroke-linecap="round" stroke-linejoin="round"/>
</symbol>
    <symbol id="icon-check" viewBox="0 0 32 32">
      <path fill="none" stroke="#e8e8e2" style="stroke:var(--color1, #e8e8e2)" stroke-linejoin="round" stroke-linecap="round" stroke-width="3.556" d="M26.667 8 12 22.667 5.333 16"/>
    </symbol>
    <symbol id="icon-cart" viewBox="0 0 38 38">
			<rect width="38" height="38" rx="19" fill="currentColor" />
			<path
				d="M14.0984 12.7C13.9128 12.7 13.7347 12.7737 13.6035 12.905C13.4722 13.0363 13.3984 13.2143 13.3984 13.4C13.3984 13.5856 13.4722 13.7637 13.6035 13.8949C13.7347 14.0262 13.9128 14.1 14.0984 14.1H14.9524L15.1659 14.9554C15.1681 14.9652 15.1704 14.975 15.1729 14.9848L16.1235 18.7858L15.4984 19.4102C14.6164 20.2922 15.2408 21.8 16.4882 21.8H22.4984C22.6841 21.8 22.8621 21.7262 22.9934 21.5949C23.1247 21.4636 23.1984 21.2856 23.1984 21.1C23.1984 20.9143 23.1247 20.7363 22.9934 20.605C22.8621 20.4737 22.6841 20.4 22.4984 20.4H16.4882L17.1882 19.7H21.7984C21.9284 19.6999 22.0558 19.6636 22.1663 19.5953C22.2768 19.5269 22.3661 19.4291 22.4242 19.3128L24.5242 15.1129C24.5776 15.0062 24.6027 14.8876 24.5974 14.7685C24.592 14.6493 24.5563 14.5335 24.4936 14.432C24.4309 14.3306 24.3433 14.2468 24.2391 14.1887C24.135 14.1306 24.0177 14.1 23.8984 14.1H16.3944L16.1774 13.2299C16.1395 13.0785 16.0521 12.9441 15.9291 12.8481C15.8061 12.7521 15.6545 12.7 15.4984 12.7H14.0984ZM23.1984 23.5499C23.1984 23.8284 23.0878 24.0955 22.8909 24.2924C22.694 24.4893 22.4269 24.5999 22.1484 24.5999C21.87 24.5999 21.6029 24.4893 21.406 24.2924C21.2091 24.0955 21.0984 23.8284 21.0984 23.5499C21.0984 23.2715 21.2091 23.0044 21.406 22.8075C21.6029 22.6106 21.87 22.5 22.1484 22.5C22.4269 22.5 22.694 22.6106 22.8909 22.8075C23.0878 23.0044 23.1984 23.2715 23.1984 23.5499ZM16.5484 24.5999C16.8269 24.5999 17.094 24.4893 17.2909 24.2924C17.4878 24.0955 17.5984 23.8284 17.5984 23.5499C17.5984 23.2715 17.4878 23.0044 17.2909 22.8075C17.094 22.6106 16.8269 22.5 16.5484 22.5C16.27 22.5 16.0029 22.6106 15.806 22.8075C15.6091 23.0044 15.4984 23.2715 15.4984 23.5499C15.4984 23.8284 15.6091 24.0955 15.806 24.2924C16.0029 24.4893 16.27 24.5999 16.5484 24.5999Z"
				fill="#E8E8E2" />
		</symbol>
    <symbol id="icon-discount" viewBox="0 0 32 32">
      <path fill="#6d8434" style="fill:var(--color2, #6d8434)" d="M32 16c0 8.837-7.163 16-16 16S0 24.837 0 16 7.163 0 16 0s16 7.163 16 16z"/>
      <path fill="#fafafa" style="fill:var(--color3, #fafafa)" d="m26.947 20.863-.233.63-4.294-1.582.233-.63.354.131.004-.012a1.224 1.224 0 0 1-.099-1.1c.29-.786 1.118-1.143 2.127-.771s1.406 1.18 1.116 1.966c-.175.474-.508.693-.802.768l-.004.012 1.597.589zm-3.557-2.266c-.191.516.118.992.797 1.242.685.252 1.223.089 1.413-.427.204-.552-.192-1.032-.792-1.254s-1.214-.113-1.418.439zM25.093 22.529c.11-.15.327-.229.513-.093s.171.363.061.512c-.117.16-.325.238-.511.102s-.18-.361-.062-.521zm-.248-.593-.397.542-2.64-1.93.397-.542 2.64 1.93zM21.828 23.303c-.554.274-1.144.585-1.641-.017-.4-.483-.233-1.126.38-1.63.815-.671 1.48-.58 1.945-.068l-.504.415c-.249-.251-.559-.385-1.093.054-.361.297-.367.601-.237.759.261.316.583.092 1.027-.124.478-.236 1.086-.604 1.559-.032.343.414.25 1.046-.382 1.567-.687.565-1.319.464-1.716.053l.504-.415c.198.169.464.29.869-.044.311-.256.381-.513.235-.691-.212-.257-.51-.044-.945.173zM18.35 25.162c.132.307.462.62 1.007.435.624-.212.709-.836.51-1.417s-.641-1.026-1.271-.812c-.545.185-.617.629-.524.982l-.636.216c-.196-.731.176-1.445.982-1.719.927-.315 1.755.148 2.085 1.117s-.042 1.839-.963 2.152c-.806.274-1.509-.062-1.828-.738l.636-.216zM15.606 23.245c1.022.062 1.599.809 1.537 1.825s-.724 1.687-1.746 1.624c-1.022-.062-1.599-.809-1.537-1.825s.724-1.687 1.746-1.624zm-.033.55c-.639-.039-1.002.445-1.042 1.116-.041.677.261 1.196.9 1.235s1.001-.439 1.042-1.116c.041-.671-.261-1.196-.9-1.235zM10.77 25.275l-.605-.293 1.431-2.941.605.293-.185.38.012.006c.267-.155.685-.237 1.191.009.547.265.825.791.497 1.465l-.988 2.032-.61-.296.904-1.859c.193-.397.149-.731-.265-.932-.466-.226-.903-.09-1.116.348l-.871 1.79zM7.833 22.957c-.406-.453-.464-1.045.095-1.543l1.685-1.505.453.505-1.542 1.377c-.329.294-.416.62-.108.963.346.386.802.425 1.165.101l1.485-1.326.448.5-2.44 2.178-.448-.5.315-.281-.009-.01c-.306.042-.724-.04-1.1-.46zM6.447 19.376l.253.56 1.617-.728c.338-.152.306-.334.103-.72l.502-.226c.085.109.163.236.237.399.222.49.121.858-.509 1.142l-1.669.751.195.432-.502.226-.195-.432-.94.423-.28-.618.94-.423-.253-.56.502-.226zM4.494 12.648l.146-.656 4.467.994-.146.656-.369-.082-.003.012c.181.217.355.584.245 1.077-.182.818-.954 1.283-2.004 1.049s-1.552-.981-1.37-1.8c.11-.493.411-.754.692-.869l.003-.012-1.662-.37zm3.828 1.769c.12-.537-.25-.967-.956-1.124-.712-.158-1.223.075-1.343.613-.128.575.329.998.953 1.136s1.218-.05 1.346-.625zM6.103 10.748c-.089.163-.293.271-.495.161s-.218-.336-.129-.5c.095-.174.29-.279.493-.17s.226.334.132.508zm.324.555.321-.59 2.875 1.559-.321.59-2.875-1.559zM9.241 9.534c.514-.344 1.057-.73 1.629-.198.459.427.379 1.086-.163 1.666-.72.772-1.391.769-1.919.322l.445-.477c.28.216.605.309 1.076-.197.319-.342.285-.644.135-.783-.3-.279-.59-.015-1.002.257-.443.296-.998.741-1.542.236-.394-.366-.385-1.004.174-1.603.607-.65 1.247-.633 1.694-.278l-.445.477c-.218-.142-.498-.227-.856.157-.275.295-.311.559-.142.715.244.227.511-.023.914-.295z"/>
      <path fill="#fafafa" style="fill:var(--color3, #fafafa)" d="M12.396 7.25c-.172-.286-.542-.552-1.057-.295-.59.295-.589.924-.314 1.473s.774.93 1.37.632c.515-.257.526-.706.386-1.044l.601-.3c.293.698.022 1.456-.74 1.836-.876.438-1.759.091-2.218-.824s-.208-1.828.662-2.262c.762-.38 1.504-.143 1.911.483l-.601.3zM15.372 8.766c-1.021.074-1.693-.589-1.767-1.604s.492-1.768 1.513-1.843c1.021-.074 1.693.589 1.768 1.604s-.492 1.768-1.513 1.843zm-.041-.549c.638-.046.933-.575.884-1.245-.05-.677-.418-1.15-1.057-1.104s-.934.568-.884 1.245c.049.67.418 1.15 1.057 1.104zM19.919 6.105l.638.21-1.026 3.105-.638-.21.133-.401-.012-.004c-.244.189-.647.326-1.182.149-.577-.191-.923-.675-.688-1.386l.709-2.145.644.213-.649 1.963c-.139.419-.051.745.387.889.492.162.907-.031 1.059-.493l.625-1.89zM23.143 8.004c.462.396.597.975.108 1.543l-1.473 1.713-.515-.441 1.348-1.567c.288-.335.331-.669-.019-.969-.394-.337-.851-.316-1.168.053l-1.298 1.509-.51-.437 2.132-2.48.51.437-.275.32.01.008c.298-.082.723-.055 1.15.311zM24.984 11.342l-.326-.521-1.504.939c-.315.196-.258.372-.005.727l-.467.291a1.917 1.917 0 0 1-.288-.363c-.285-.456-.236-.834.351-1.2l1.553-.969-.252-.401.467-.291.252.401.874-.546.36.575-.874.546.326.521-.467.291zM17.556 14.756c-2.8.622-3.453 2.542-4.1 4.15l.588.205.296-.716c.149.053.305.093.417.093 3.422 0 4.356-5.289 4.356-5.289-.311.622-2.489.7-4.044 1.011s-2.178 1.633-2.178 2.256.544 1.167.544 1.167c1.011-2.878 4.122-2.878 4.122-2.878z"/>
    </symbol>
    <symbol id="icon-facebook" viewBox="0 0 32 32">
      <path fill="none" stroke="#e8e8e2" style="stroke:var(--color1, #e8e8e2)" stroke-width=".727" d="M7.273.364h17.455a6.909 6.909 0 0 1 6.909 6.909v17.455a6.909 6.909 0 0 1-6.909 6.909H7.273a6.909 6.909 0 0 1-6.909-6.909V7.273A6.909 6.909 0 0 1 7.273.364z"/>
      <path fill="#e8e8e2" style="fill:var(--color1, #e8e8e2)" opacity=".8" d="M18.24 8.771h.611v2.291h-.764c-.306 0-.611 0-.764.153-.153.153-.153.305-.153.662v.815h1.68v1.935h-1.68v8.4h-2.596v-8.451h-1.375v-1.935h1.375v-.662c0-1.12.153-1.935.458-2.291.458-.662 1.375-.967 2.749-.967.153.051.305.051.458.051z"/>
    </symbol>
    <symbol id="icon-insta" viewBox="0 0 32 32">
      <path fill="none" stroke="#e8e8e2" style="stroke:var(--color1, #e8e8e2)" stroke-width=".727" d="M7.273.364h17.455a6.909 6.909 0 0 1 6.909 6.909v17.455a6.909 6.909 0 0 1-6.909 6.909H7.273a6.909 6.909 0 0 1-6.909-6.909V7.273A6.909 6.909 0 0 1 7.273.364z"/>
      <path fill="#e8e8e2" style="fill:var(--color1, #e8e8e2)" opacity=".8" d="M24.093 12.663a5.895 5.895 0 0 0-.379-2.001 4.166 4.166 0 0 0-2.382-2.378 5.96 5.96 0 0 0-1.978-.379c-.87-.039-1.146-.05-3.355-.05s-2.492 0-3.356.05a5.99 5.99 0 0 0-1.977.379 4.163 4.163 0 0 0-2.382 2.378 5.916 5.916 0 0 0-.379 1.973c-.039.87-.051 1.145-.051 3.351s0 2.487.051 3.351c.014.676.141 1.342.379 1.975a4.166 4.166 0 0 0 2.383 2.377 5.94 5.94 0 0 0 1.977.406c.871.039 1.147.051 3.356.051s2.492 0 3.356-.051a6 6 0 0 0 1.978-.378 4.172 4.172 0 0 0 2.382-2.378 5.923 5.923 0 0 0 .379-1.975c.039-.869.051-1.144.051-3.351-.002-2.205-.002-2.485-.052-3.35zm-8.099 7.493c-2.31 0-4.182-1.869-4.182-4.175s1.872-4.175 4.182-4.175c2.309 0 4.182 1.869 4.182 4.175s-1.874 4.175-4.182 4.175zm4.348-7.531a.973.973 0 1 1 0-1.948.973.973 0 1 1 0 1.948z"/>
      <path fill="#e8e8e2" style="fill:var(--color1, #e8e8e2)" opacity=".8" d="M15.995 18.53a2.548 2.548 0 1 0 0-5.097 2.548 2.548 0 0 0 0 5.097z"/>
    </symbol>
    <symbol id="icon-youtube" viewBox="0 0 32 32">
      <path fill="none" stroke="#e8e8e2" style="stroke:var(--color1, #e8e8e2)" stroke-width=".727" d="M7.273.364h17.455a6.909 6.909 0 0 1 6.909 6.909v17.455a6.909 6.909 0 0 1-6.909 6.909H7.273a6.909 6.909 0 0 1-6.909-6.909V7.273A6.909 6.909 0 0 1 7.273.364z"/>
      <path fill="#e8e8e2" style="fill:var(--color1, #e8e8e2)" opacity=".8" d="M21.244 9.636c-.865-.051-2.647-.102-5.345-.102h-.356c-2.596 0-4.327.051-5.193.153-1.171.102-1.986.407-2.444.815-.407.356-.713 1.018-.814 1.884-.051.56-.102 1.731-.102 3.513v.255c0 1.68.051 2.851.153 3.411.153.815.407 1.425.916 1.782.509.407 1.375.662 2.596.764.865.051 2.647.102 5.345.102h.356c2.596 0 4.327-.051 5.193-.153 1.171-.102 1.985-.407 2.444-.815.407-.356.713-1.018.814-1.884.051-.56.102-1.731.102-3.513v-.255c0-1.68-.051-2.851-.153-3.411-.153-.815-.407-1.425-.916-1.782-.509-.407-1.375-.662-2.596-.764zm-1.986 6.262-5.6 3.36v-6.72l5.6 3.36z"/>
    </symbol>
    <symbol id="icon-search" viewBox="0 0 32 32">
      <path d="M20.667 18.667h-1.053l-.373-.36a8.625 8.625 0 0 0 2.093-5.64 8.668 8.668 0 0 0-5.35-8.007A8.66 8.66 0 0 0 6.54 6.539a8.67 8.67 0 0 0-1.879 9.444 8.671 8.671 0 0 0 8.007 5.35 8.63 8.63 0 0 0 5.64-2.093l.36.373v1.053l6.667 6.653 1.987-1.987-6.653-6.667zm-8 0c-3.32 0-6-2.68-6-6s2.68-6 6-6 6 2.68 6 6-2.68 6-6 6z"/>
    </symbol>
    <symbol id="icon-icon" viewBox="0 0 32 32">
      <path fill="#6d8434" style="fill:var(--color2, #6d8434)" d="M32 16c0 8.837-7.163 16-16 16S0 24.837 0 16 7.163 0 16 0s16 7.163 16 16z"/>
      <path fill="#e8e8e2" style="fill:var(--color1, #e8e8e2)" d="M16.93 8.89a3.363 3.363 0 0 0-1.136-1.067c-1.257-.721-2.876-.594-4.37.243C8.65 9.62 6.833 12.542 6.833 16c0 4.617 3.342 8.344 7.706 9.05.477.077.964.117 1.461.117a9.128 9.128 0 0 0 6.516-2.701 9.146 9.146 0 0 0 2.651-6.537c-.019-1.61-.665-3.586-1.686-5.165-1.017-1.573-2.58-3.007-4.523-2.988-.948.002-1.596.523-2.028 1.115V8.89zm5.546 3.454a3.944 3.944 0 0 0-1.052-.027l-.967-1.625-1.432.85.743 1.25a5.631 5.631 0 0 0-.887.521l-.015-.048c-.223-.675-.652-1.229-1.226-1.78l.003-.017c.058-.269.149-.617.287-.954.311-.763.672-1.073 1.033-1.073h.009c1.076-.012 2.197.814 3.109 2.226a8.6 8.6 0 0 1 .395.677l-.001.001zm-5.134 2.498a4.382 4.382 0 0 0-.833.098 3.127 3.127 0 0 0-.885-.954 2.683 2.683 0 0 0-2.535-.328 11.72 11.72 0 0 0-.27-.151l2.694-2.641-1.167-1.19-3.196 3.133c-.675-.196-1.306-.266-1.872-.188a7.257 7.257 0 0 1 2.962-3.102c1.137-.637 2.114-.602 2.726-.251.583.334 1.068 1.093.946 2.448l-.037.419.315.279c.685.606.97.998 1.093 1.372.087.262.115.58.059 1.056zM15 15.679c-.712.596-1.189 1.432-1.467 2.335l-2.478-2.721-1.232 1.123 3.407 3.74c-.004.993.123 2.01.308 2.929A7.46 7.46 0 0 1 8.5 15.999c0-.867.241-1.339.524-1.546.268-.197.855-.357 2.058.087.435.161.938.408 1.514.766l.418.26.43-.242c.519-.292.916-.188 1.22.025.133.093.248.21.335.329zm1.471 7.806 6.077-6.697-1.234-1.12-2.443 2.692.006-.845-1.667-.012-.019 2.708-2.069 2.281c-.157-.851-.25-1.765-.22-2.622.053-1.462.637-2.664 1.502-3.14.358-.198.991-.275 1.491-.187l.742.129.204-.724c.107-.377.389-.782.831-1.142a3.97 3.97 0 0 1 1.528-.763c.668-.163 1.237-.078 1.612.18.328.225.657.685.688 1.628v.015l.003.133a7.468 7.468 0 0 1-7.029 7.485z"/>
    </symbol>
    <symbol id="icon-basket" viewBox="0 0 30 32">
      <path d="M3.2 1.694a1.694 1.694 0 1 0 0 3.388h2.067l.517 2.07.017.071 2.301 9.199-1.513 1.511c-2.135 2.135-.623 5.784 2.395 5.784H23.53a1.694 1.694 0 1 0 0-3.388H8.984l1.694-1.694h11.157a1.693 1.693 0 0 0 1.514-.936l5.082-10.165a1.693 1.693 0 0 0-1.515-2.451H8.755L8.23 2.977a1.694 1.694 0 0 0-1.643-1.283H3.199zm22.024 26.259a2.544 2.544 0 0 1-2.541 2.541 2.544 2.544 0 0 1-2.541-2.541 2.544 2.544 0 0 1 2.541-2.541 2.544 2.544 0 0 1 2.541 2.541zM9.13 30.494a2.544 2.544 0 0 0 2.541-2.541 2.544 2.544 0 0 0-2.541-2.541 2.544 2.544 0 0 0-2.541 2.541 2.544 2.544 0 0 0 2.541 2.541z"/>
    </symbol>
    <symbol id="icon-icon-f" viewBox="0 0 32 32">
      <path fill="n#e8e8e2" style="fill:var(--color2,#e8e8e2 )" d="M32 16c0 8.837-7.163 16-16 16S0 24.837 0 16 7.163 0 16 0s16 7.163 16 16z"/>
      <path fill="#6d8434" style="fill:var(--color1,#6d8434 )" d="M16.93 8.89a3.363 3.363 0 0 0-1.136-1.067c-1.257-.721-2.876-.594-4.37.243C8.65 9.62 6.833 12.542 6.833 16c0 4.617 3.342 8.344 7.706 9.05.477.077.964.117 1.461.117a9.128 9.128 0 0 0 6.516-2.701 9.146 9.146 0 0 0 2.651-6.537c-.019-1.61-.665-3.586-1.686-5.165-1.017-1.573-2.58-3.007-4.523-2.988-.948.002-1.596.523-2.028 1.115V8.89zm5.546 3.454a3.944 3.944 0 0 0-1.052-.027l-.967-1.625-1.432.85.743 1.25a5.631 5.631 0 0 0-.887.521l-.015-.048c-.223-.675-.652-1.229-1.226-1.78l.003-.017c.058-.269.149-.617.287-.954.311-.763.672-1.073 1.033-1.073h.009c1.076-.012 2.197.814 3.109 2.226a8.6 8.6 0 0 1 .395.677l-.001.001zm-5.134 2.498a4.382 4.382 0 0 0-.833.098 3.127 3.127 0 0 0-.885-.954 2.683 2.683 0 0 0-2.535-.328 11.72 11.72 0 0 0-.27-.151l2.694-2.641-1.167-1.19-3.196 3.133c-.675-.196-1.306-.266-1.872-.188a7.257 7.257 0 0 1 2.962-3.102c1.137-.637 2.114-.602 2.726-.251.583.334 1.068 1.093.946 2.448l-.037.419.315.279c.685.606.97.998 1.093 1.372.087.262.115.58.059 1.056zM15 15.679c-.712.596-1.189 1.432-1.467 2.335l-2.478-2.721-1.232 1.123 3.407 3.74c-.004.993.123 2.01.308 2.929A7.46 7.46 0 0 1 8.5 15.999c0-.867.241-1.339.524-1.546.268-.197.855-.357 2.058.087.435.161.938.408 1.514.766l.418.26.43-.242c.519-.292.916-.188 1.22.025.133.093.248.21.335.329zm1.471 7.806 6.077-6.697-1.234-1.12-2.443 2.692.006-.845-1.667-.012-.019 2.708-2.069 2.281c-.157-.851-.25-1.765-.22-2.622.053-1.462.637-2.664 1.502-3.14.358-.198.991-.275 1.491-.187l.742.129.204-.724c.107-.377.389-.782.831-1.142a3.97 3.97 0 0 1 1.528-.763c.668-.163 1.237-.078 1.612.18.328.225.657.685.688 1.628v.015l.003.133a7.468 7.468 0 0 1-7.029 7.485z"/>
    </symbol>
    <symbol id="icon-organic-food" viewBox="0 0 32 32">
      <path fill="#fdc152" style="fill:var(--color1, #fdc152)" d="M32 16c0 8.837-7.163 16-16 16S0 24.837 0 16 7.163 0 16 0s16 7.163 16 16z"/>
      <path fill="#010101" style="fill:var(--color2, #010101)" d="M25.174 17.182c.104-.813.731-1.233 1.538-1.13s1.308.668 1.204 1.48c-.104.813-.731 1.233-1.538 1.13s-1.308-.668-1.204-1.481zm.437.056c-.065.508.303.823.836.891.538.069.968-.145 1.033-.652s-.297-.823-.836-.891c-.533-.068-.968.145-1.033.652zM27.137 20.516a1.724 1.724 0 0 1-.093.217l-.478-.169.003-.01c.255-.458.065-.966-.461-1.152l-1.26-.446.179-.507 2.466.873-.179.507-.463-.164-.003.01c.263.24.403.518.289.841zM25.819 22.819l-.284.457-2.07-1.286c-.639-.397-.682-.96-.29-1.59.397-.639.951-.784 1.355-.599l-.286.461c-.223-.078-.468-.013-.692.348-.238.383-.185.687.215.935l.27.167.005-.009c-.092-.22-.131-.527.088-.879.346-.557.992-.734 1.692-.299.705.438.828 1.093.482 1.65-.219.352-.511.454-.741.474l-.005.009.261.162zm-1.369-1.676c-.23.37-.124.743.346 1.035s.851.221 1.081-.149c.248-.4.075-.791-.338-1.048-.409-.254-.84-.238-1.089.162zM23.459 24.426c.131.137.311.164.571-.083.312-.296.335-.502.121-.765l.379-.36c.327.381.365.889-.207 1.433-.419.399-.883.535-1.363.031l-.857-.902c-.127-.134-.224-.176-.362-.016l-.176-.186a.8.8 0 0 1 .188-.256c.208-.198.375-.215.588-.065l.007-.007c-.04-.28.066-.6.359-.878.386-.367.835-.37 1.138-.051.395.416.21.838-.176 1.383-.24.334-.383.541-.21.723zm-.544-1.666c-.323.307-.394.678-.101.986l.272.286c.021-.104.131-.294.277-.504.256-.377.309-.604.125-.797-.166-.174-.361-.172-.573.029zM21.582 26.621c-.427.233-.899.171-1.186-.355l-.867-1.586.476-.26.793 1.451c.169.31.408.436.731.26.364-.199.477-.547.29-.888l-.764-1.397.472-.258 1.255 2.296-.472.258-.162-.297-.009.005c-.023.246-.163.556-.558.772zM19.932 27.718c.141-.046.319.004.376.18s-.059.315-.2.361c-.151.049-.322.002-.379-.173s.053-.319.204-.368zm.117-.501-.511.166-.808-2.489.511-.166.808 2.489zM16.83 26.935c.054.261.263.56.72.502.523-.067.689-.542.627-1.03s-.338-.907-.866-.839c-.457.058-.584.395-.568.687l-.533.068c-.036-.604.37-1.105 1.045-1.192.777-.099 1.351.395 1.455 1.208s-.327 1.436-1.099 1.534c-.675.086-1.172-.289-1.314-.87l.533-.068zM11.643 27.731c.328.118.466.124.554-.16l.085-.274-.459-.143.131-.42.459.143.648-2.077.518.162-.648 2.077.357.111-.131.42-.357-.111-.099.318c-.165.528-.447.643-.858.515a1.86 1.86 0 0 1-.331-.141l.131-.42zM11.604 24.07c.717.396.878 1.133.484 1.846s-1.103.971-1.82.575c-.717-.396-.878-1.133-.484-1.846s1.103-.971 1.82-.575zm-.213.385c-.448-.247-.877-.022-1.136.449-.262.475-.222.954.226 1.201s.874.026 1.136-.449c.26-.471.222-.954-.226-1.201z"/>
      <path fill="#010101" style="fill:var(--color2, #010101)" d="M9.701 22.674c.594.564.562 1.318.001 1.909s-1.312.66-1.906.096c-.594-.564-.562-1.318-.001-1.909s1.312-.66 1.906-.096zm-.303.32c-.371-.353-.843-.243-1.213.147-.374.393-.456.866-.085 1.219s.839.247 1.213-.147c.37-.39.456-.866.085-1.219z"/>
      <path fill="#010101" style="fill:var(--color2, #010101)" d="m4.684 22.229-.277-.461 3.138-1.885.277.461-.259.156.005.009a.978.978 0 0 1 .736.49c.345.575.153 1.27-.584 1.713s-1.441.286-1.786-.289c-.208-.347-.178-.664-.078-.885l-.005-.009-1.168.701zm3.196-1.084c-.227-.377-.678-.423-1.174-.125-.5.301-.668.718-.441 1.095.243.404.74.397 1.179.134s.678-.7.436-1.104zM6.849 16.375c.032.819-.517 1.337-1.331 1.368s-1.401-.443-1.432-1.262.517-1.337 1.331-1.368c.813-.031 1.401.443 1.432 1.261zm-.44.017c-.02-.512-.434-.762-.971-.741-.542.021-.931.302-.911.814s.429.762.971.741c.537-.021.931-.302.911-.814zM4.369 13.36c.016-.091.033-.155.057-.229l.499.089-.002.01c-.177.494.093.963.642 1.062l1.315.235-.095.529-2.575-.461.095-.529.484.087.002-.01c-.298-.194-.482-.445-.422-.783zM5.287 10.885l.206-.497 2.252.933c.695.288.828.836.544 1.522-.288.695-.811.928-1.239.811l.208-.501c.232.041.464-.063.626-.455.172-.416.071-.707-.364-.888l-.293-.121-.004.009c.127.202.215.499.056.882-.251.605-.86.885-1.621.57-.766-.317-.995-.944-.744-1.549.159-.383.431-.531.654-.588l.004-.009-.284-.118zm1.623 1.432c.167-.402.002-.753-.509-.965s-.876-.08-1.042.322c-.18.435.054.793.503.979.445.184.868.099 1.048-.336zM7.356 8.912c-.151-.115-.333-.112-.55.173-.261.342-.251.549.003.774l-.316.415c-.384-.324-.502-.82-.024-1.447.351-.46.786-.669 1.34-.247l.99.754c.147.112.249.138.36-.041l.204.155a.817.817 0 0 1-.144.283c-.174.228-.336.272-.571.158l-.006.008c.084.27.03.602-.215.924-.323.424-.766.498-1.116.232-.456-.347-.341-.794-.046-1.393.184-.368.292-.595.092-.747zm.802 1.558c.27-.354.281-.732-.057-.99l-.314-.239c-.004.107-.082.311-.193.541-.192.413-.208.646.003.807.191.146.384.112.561-.12zM8.821 6.462c.383-.3.859-.316 1.228.155l1.116 1.422-.427.335-1.021-1.301c-.218-.278-.474-.364-.764-.136-.326.256-.381.618-.141.924l.983 1.253-.423.332-1.615-2.058.423-.332.209.266.008-.006c-.018-.246.069-.575.424-.853zM10.294 5.089c-.132.068-.315.048-.4-.116s.007-.321.139-.389c.141-.073.318-.055.402.109s0 .323-.141.396zm-.034.514.477-.247 1.204 2.323-.477.247-1.204-2.323zM13.485 5.351c-.096-.249-.351-.51-.792-.377-.505.151-.592.648-.451 1.119s.481.839.991.686c.441-.132.512-.485.448-.77l.515-.154c.134.591-.184 1.151-.837 1.346-.75.225-1.398-.169-1.633-.954s.089-1.47.834-1.693c.652-.195 1.204.094 1.438.643l-.515.154zM18.451 3.719c-.343-.063-.48-.046-.521.248l-.04.284.477.067-.061.436-.477-.067-.301 2.155-.538-.075.301-2.155-.37-.052.061-.436.37.052.046-.33c.076-.548.337-.708.763-.648.132.018.246.05.35.085l-.061.436zM19.096 7.321c-.772-.273-1.051-.975-.779-1.742s.929-1.137 1.702-.864c.772.273 1.051.975.779 1.742s-.929 1.137-1.702.864zm.147-.415c.483.171.869-.122 1.048-.628.181-.512.063-.977-.419-1.148s-.867.117-1.048.628c-.179.507-.063.977.419 1.148z"/>
      <path fill="#010101" style="fill:var(--color2, #010101)" d="M21.17 8.361c-.678-.46-.77-1.209-.313-1.883s1.187-.865 1.865-.405c.678.46.77 1.209.313 1.883s-1.187.865-1.865.405zm.247-.364c.424.287.871.102 1.173-.343.305-.449.308-.929-.115-1.216s-.868-.106-1.173.343c-.302.445-.308.929.115 1.216zM26.247 8.03l.347.411-2.796 2.363-.347-.411.231-.195-.007-.008a.979.979 0 0 1-.805-.365c-.433-.512-.355-1.229.302-1.784s1.376-.513 1.809-.001c.261.309.282.627.218.861l.007.008 1.04-.879zm-2.98 1.582c.284.336.737.309 1.179-.065.446-.377.544-.815.26-1.152-.304-.36-.794-.274-1.186.057s-.558.8-.253 1.16zM17.6 14.72c-2.88.64-3.552 2.614-4.218 4.269l.605.211.304-.736c.154.054.314.096.429.096 3.52 0 4.48-5.44 4.48-5.44-.32.64-2.56.72-4.16 1.04s-2.24 1.68-2.24 2.32c0 .64.56 1.2.56 1.2 1.04-2.96 4.24-2.96 4.24-2.96z"/>
    </symbol>
    <symbol id="icon-ion_close-sharp" viewBox="0 0 32 32">
      <path d="M25 9.093l-2.093-2.093-6.907 6.907-6.907-6.907-2.093 2.093 6.907 6.907-6.907 6.907 2.093 2.093 6.907-6.907 6.907 6.907 2.093-2.093-6.907-6.907 6.907-6.907z"></path>
    </symbol>
    <symbol id="icon-Nav-Button-Next" viewBox="0 0 32 32">
<title>Nav-Button-Prev</title>
<path fill="#FAFAFA" style="fill: var(--color1, #FAFAFA)" d="M16 0c8.837 0 16 7.163 16 16s-7.163 16-16 16c-8.837 0-16-7.163-16-16s7.163-16 16-16z"></path>
<path fill="none" stroke="#A3A3A3" style="stroke: var(--color2, #A3A3A3)" stroke-linejoin="round" stroke-linecap="round" stroke-miterlimit="4" stroke-width="1.2" d="M14.4 12.8l3.2 3.2-3.2 3.2"></path>
</symbol>
<symbol id="icon-Nav-Button-Prev" viewBox="0 0 32 32">
<title>Nav-Button-Next</title>
<path fill="#FAFAFA" style="fill: var(--color1, #FAFAFA)" d="M16 0c8.837 0 16 7.163 16 16s-7.163 16-16 16c-8.837 0-16-7.163-16-16s7.163-16 16-16z"></path>
<path fill="none" stroke="#A3A3A3" style="stroke: var(--color2, #A3A3A3)" stroke-linejoin="round" stroke-linecap="round" stroke-miterlimit="4" stroke-width="1.2" d="M17.6 19.2l-3.2-3.2 3.2-3.2"></path>
</symbol>
    
  </defs>
</svg>
