<svg aria-hidden="true" style="position:absolute;width:0;height:0;overflow:hidden" xmlns="http://www.w3.org/2000/svg">
	<defs>
		<symbol id="icon-check" viewBox="0 0 32 32">
			<path fill="none" stroke="#e8e8e2" style="stroke:var(--color1, #e8e8e2)" stroke-linejoin="round"
				stroke-linecap="round" stroke-width="3.556" d="M26.667 8 12 22.667 5.333 16" />
		</symbol>

		<symbol id="icon-discount" viewBox="0 0 32 32">
			<path fill="#6d8434" style="fill:var(--color2, #6d8434)"
				d="M32 16c0 8.837-7.163 16-16 16S0 24.837 0 16 7.163 0 16 0s16 7.163 16 16z" />
			<path fill="#fafafa" style="fill:var(--color3, #fafafa)"
				d="m26.947 20.863-.233.63-4.294-1.582.233-.63.354.131.004-.012a1.224 1.224 0 0 1-.099-1.1c.29-.786 1.118-1.143 2.127-.771s1.406 1.18 1.116 1.966c-.175.474-.508.693-.802.768l-.004.012 1.597.589zm-3.557-2.266c-.191.516.118.992.797 1.242.685.252 1.223.089 1.413-.427.204-.552-.192-1.032-.792-1.254s-1.214-.113-1.418.439zM25.093 22.529c.11-.15.327-.229.513-.093s.171.363.061.512c-.117.16-.325.238-.511.102s-.18-.361-.062-.521zm-.248-.593-.397.542-2.64-1.93.397-.542 2.64 1.93zM21.828 23.303c-.554.274-1.144.585-1.641-.017-.4-.483-.233-1.126.38-1.63.815-.671 1.48-.58 1.945-.068l-.504.415c-.249-.251-.559-.385-1.093.054-.361.297-.367.601-.237.759.261.316.583.092 1.027-.124.478-.236 1.086-.604 1.559-.032.343.414.25 1.046-.382 1.567-.687.565-1.319.464-1.716.053l.504-.415c.198.169.464.29.869-.044.311-.256.381-.513.235-.691-.212-.257-.51-.044-.945.173zM18.35 25.162c.132.307.462.62 1.007.435.624-.212.709-.836.51-1.417s-.641-1.026-1.271-.812c-.545.185-.617.629-.524.982l-.636.216c-.196-.731.176-1.445.982-1.719.927-.315 1.755.148 2.085 1.117s-.042 1.839-.963 2.152c-.806.274-1.509-.062-1.828-.738l.636-.216zM15.606 23.245c1.022.062 1.599.809 1.537 1.825s-.724 1.687-1.746 1.624c-1.022-.062-1.599-.809-1.537-1.825s.724-1.687 1.746-1.624zm-.033.55c-.639-.039-1.002.445-1.042 1.116-.041.677.261 1.196.9 1.235s1.001-.439 1.042-1.116c.041-.671-.261-1.196-.9-1.235zM10.77 25.275l-.605-.293 1.431-2.941.605.293-.185.38.012.006c.267-.155.685-.237 1.191.009.547.265.825.791.497 1.465l-.988 2.032-.61-.296.904-1.859c.193-.397.149-.731-.265-.932-.466-.226-.903-.09-1.116.348l-.871 1.79zM7.833 22.957c-.406-.453-.464-1.045.095-1.543l1.685-1.505.453.505-1.542 1.377c-.329.294-.416.62-.108.963.346.386.802.425 1.165.101l1.485-1.326.448.5-2.44 2.178-.448-.5.315-.281-.009-.01c-.306.042-.724-.04-1.1-.46zM6.447 19.376l.253.56 1.617-.728c.338-.152.306-.334.103-.72l.502-.226c.085.109.163.236.237.399.222.49.121.858-.509 1.142l-1.669.751.195.432-.502.226-.195-.432-.94.423-.28-.618.94-.423-.253-.56.502-.226zM4.494 12.648l.146-.656 4.467.994-.146.656-.369-.082-.003.012c.181.217.355.584.245 1.077-.182.818-.954 1.283-2.004 1.049s-1.552-.981-1.37-1.8c.11-.493.411-.754.692-.869l.003-.012-1.662-.37zm3.828 1.769c.12-.537-.25-.967-.956-1.124-.712-.158-1.223.075-1.343.613-.128.575.329.998.953 1.136s1.218-.05 1.346-.625zM6.103 10.748c-.089.163-.293.271-.495.161s-.218-.336-.129-.5c.095-.174.29-.279.493-.17s.226.334.132.508zm.324.555.321-.59 2.875 1.559-.321.59-2.875-1.559zM9.241 9.534c.514-.344 1.057-.73 1.629-.198.459.427.379 1.086-.163 1.666-.72.772-1.391.769-1.919.322l.445-.477c.28.216.605.309 1.076-.197.319-.342.285-.644.135-.783-.3-.279-.59-.015-1.002.257-.443.296-.998.741-1.542.236-.394-.366-.385-1.004.174-1.603.607-.65 1.247-.633 1.694-.278l-.445.477c-.218-.142-.498-.227-.856.157-.275.295-.311.559-.142.715.244.227.511-.023.914-.295z" />
			<path fill="#fafafa" style="fill:var(--color3, #fafafa)"
				d="M12.396 7.25c-.172-.286-.542-.552-1.057-.295-.59.295-.589.924-.314 1.473s.774.93 1.37.632c.515-.257.526-.706.386-1.044l.601-.3c.293.698.022 1.456-.74 1.836-.876.438-1.759.091-2.218-.824s-.208-1.828.662-2.262c.762-.38 1.504-.143 1.911.483l-.601.3zM15.372 8.766c-1.021.074-1.693-.589-1.767-1.604s.492-1.768 1.513-1.843c1.021-.074 1.693.589 1.768 1.604s-.492 1.768-1.513 1.843zm-.041-.549c.638-.046.933-.575.884-1.245-.05-.677-.418-1.15-1.057-1.104s-.934.568-.884 1.245c.049.67.418 1.15 1.057 1.104zM19.919 6.105l.638.21-1.026 3.105-.638-.21.133-.401-.012-.004c-.244.189-.647.326-1.182.149-.577-.191-.923-.675-.688-1.386l.709-2.145.644.213-.649 1.963c-.139.419-.051.745.387.889.492.162.907-.031 1.059-.493l.625-1.89zM23.143 8.004c.462.396.597.975.108 1.543l-1.473 1.713-.515-.441 1.348-1.567c.288-.335.331-.669-.019-.969-.394-.337-.851-.316-1.168.053l-1.298 1.509-.51-.437 2.132-2.48.51.437-.275.32.01.008c.298-.082.723-.055 1.15.311zM24.984 11.342l-.326-.521-1.504.939c-.315.196-.258.372-.005.727l-.467.291a1.917 1.917 0 0 1-.288-.363c-.285-.456-.236-.834.351-1.2l1.553-.969-.252-.401.467-.291.252.401.874-.546.36.575-.874.546.326.521-.467.291zM17.556 14.756c-2.8.622-3.453 2.542-4.1 4.15l.588.205.296-.716c.149.053.305.093.417.093 3.422 0 4.356-5.289 4.356-5.289-.311.622-2.489.7-4.044 1.011s-2.178 1.633-2.178 2.256.544 1.167.544 1.167c1.011-2.878 4.122-2.878 4.122-2.878z" />
		</symbol>

		<symbol id="icon-facebook" viewBox="0 0 32 32">
			<path fill="none" stroke="#e8e8e2" style="stroke:var(--color1, #e8e8e2)" stroke-width=".727"
				d="M7.273.364h17.455a6.909 6.909 0 0 1 6.909 6.909v17.455a6.909 6.909 0 0 1-6.909 6.909H7.273a6.909 6.909 0 0 1-6.909-6.909V7.273A6.909 6.909 0 0 1 7.273.364z" />
			<path fill="#e8e8e2" style="fill:var(--color1, #e8e8e2)" opacity=".8"
				d="M18.24 8.771h.611v2.291h-.764c-.306 0-.611 0-.764.153-.153.153-.153.305-.153.662v.815h1.68v1.935h-1.68v8.4h-2.596v-8.451h-1.375v-1.935h1.375v-.662c0-1.12.153-1.935.458-2.291.458-.662 1.375-.967 2.749-.967.153.051.305.051.458.051z" />
		</symbol>

		<symbol id="icon-insta" viewBox="0 0 32 32">
			<path fill="none" stroke="#e8e8e2" style="stroke:var(--color1, #e8e8e2)" stroke-width=".727"
				d="M7.273.364h17.455a6.909 6.909 0 0 1 6.909 6.909v17.455a6.909 6.909 0 0 1-6.909 6.909H7.273a6.909 6.909 0 0 1-6.909-6.909V7.273A6.909 6.909 0 0 1 7.273.364z" />
			<path fill="#e8e8e2" style="fill:var(--color1, #e8e8e2)" opacity=".8"
				d="M24.093 12.663a5.895 5.895 0 0 0-.379-2.001 4.166 4.166 0 0 0-2.382-2.378 5.96 5.96 0 0 0-1.978-.379c-.87-.039-1.146-.05-3.355-.05s-2.492 0-3.356.05a5.99 5.99 0 0 0-1.977.379 4.163 4.163 0 0 0-2.382 2.378 5.916 5.916 0 0 0-.379 1.973c-.039.87-.051 1.145-.051 3.351s0 2.487.051 3.351c.014.676.141 1.342.379 1.975a4.166 4.166 0 0 0 2.383 2.377 5.94 5.94 0 0 0 1.977.406c.871.039 1.147.051 3.356.051s2.492 0 3.356-.051a6 6 0 0 0 1.978-.378 4.172 4.172 0 0 0 2.382-2.378 5.923 5.923 0 0 0 .379-1.975c.039-.869.051-1.144.051-3.351-.002-2.205-.002-2.485-.052-3.35zm-8.099 7.493c-2.31 0-4.182-1.869-4.182-4.175s1.872-4.175 4.182-4.175c2.309 0 4.182 1.869 4.182 4.175s-1.874 4.175-4.182 4.175zm4.348-7.531a.973.973 0 1 1 0-1.948.973.973 0 1 1 0 1.948z" />
			<path fill="#e8e8e2" style="fill:var(--color1, #e8e8e2)" opacity=".8"
				d="M15.995 18.53a2.548 2.548 0 1 0 0-5.097 2.548 2.548 0 0 0 0 5.097z" />
		</symbol>

		<symbol id="icon-youtube" viewBox="0 0 32 32">
			<path fill="none" stroke="#e8e8e2" style="stroke:var(--color1, #e8e8e2)" stroke-width=".727"
				d="M7.273.364h17.455a6.909 6.909 0 0 1 6.909 6.909v17.455a6.909 6.909 0 0 1-6.909 6.909H7.273a6.909 6.909 0 0 1-6.909-6.909V7.273A6.909 6.909 0 0 1 7.273.364z" />
			<path fill="#e8e8e2" style="fill:var(--color1, #e8e8e2)" opacity=".8"
				d="M21.244 9.636c-.865-.051-2.647-.102-5.345-.102h-.356c-2.596 0-4.327.051-5.193.153-1.171.102-1.986.407-2.444.815-.407.356-.713 1.018-.814 1.884-.051.56-.102 1.731-.102 3.513v.255c0 1.68.051 2.851.153 3.411.153.815.407 1.425.916 1.782.509.407 1.375.662 2.596.764.865.051 2.647.102 5.345.102h.356c2.596 0 4.327-.051 5.193-.153 1.171-.102 1.985-.407 2.444-.815.407-.356.713-1.018.814-1.884.051-.56.102-1.731.102-3.513v-.255c0-1.68-.051-2.851-.153-3.411-.153-.815-.407-1.425-.916-1.782-.509-.407-1.375-.662-2.596-.764zm-1.986 6.262-5.6 3.36v-6.72l5.6 3.36z" />
		</symbol>

		<symbol id="icon-search" viewBox="0 0 32 32">
			<path
				d="M20.667 18.667h-1.053l-.373-.36a8.625 8.625 0 0 0 2.093-5.64 8.668 8.668 0 0 0-5.35-8.007A8.66 8.66 0 0 0 6.54 6.539a8.67 8.67 0 0 0-1.879 9.444 8.671 8.671 0 0 0 8.007 5.35 8.63 8.63 0 0 0 5.64-2.093l.36.373v1.053l6.667 6.653 1.987-1.987-6.653-6.667zm-8 0c-3.32 0-6-2.68-6-6s2.68-6 6-6 6 2.68 6 6-2.68 6-6 6z" />
		</symbol>

		<symbol id="icon-icon" viewBox="0 0 32 32">
			<path fill="#6d8434" style="fill:var(--color2, #6d8434)"
				d="M32 16c0 8.837-7.163 16-16 16S0 24.837 0 16 7.163 0 16 0s16 7.163 16 16z" />
			<path fill="#e8e8e2" style="fill:var(--color1, #e8e8e2)"
				d="M16.93 8.89a3.363 3.363 0 0 0-1.136-1.067c-1.257-.721-2.876-.594-4.37.243C8.65 9.62 6.833 12.542 6.833 16c0 4.617 3.342 8.344 7.706 9.05.477.077.964.117 1.461.117a9.128 9.128 0 0 0 6.516-2.701 9.146 9.146 0 0 0 2.651-6.537c-.019-1.61-.665-3.586-1.686-5.165-1.017-1.573-2.58-3.007-4.523-2.988-.948.002-1.596.523-2.028 1.115V8.89zm5.546 3.454a3.944 3.944 0 0 0-1.052-.027l-.967-1.625-1.432.85.743 1.25a5.631 5.631 0 0 0-.887.521l-.015-.048c-.223-.675-.652-1.229-1.226-1.78l.003-.017c.058-.269.149-.617.287-.954.311-.763.672-1.073 1.033-1.073h.009c1.076-.012 2.197.814 3.109 2.226a8.6 8.6 0 0 1 .395.677l-.001.001zm-5.134 2.498a4.382 4.382 0 0 0-.833.098 3.127 3.127 0 0 0-.885-.954 2.683 2.683 0 0 0-2.535-.328 11.72 11.72 0 0 0-.27-.151l2.694-2.641-1.167-1.19-3.196 3.133c-.675-.196-1.306-.266-1.872-.188a7.257 7.257 0 0 1 2.962-3.102c1.137-.637 2.114-.602 2.726-.251.583.334 1.068 1.093.946 2.448l-.037.419.315.279c.685.606.97.998 1.093 1.372.087.262.115.58.059 1.056zM15 15.679c-.712.596-1.189 1.432-1.467 2.335l-2.478-2.721-1.232 1.123 3.407 3.74c-.004.993.123 2.01.308 2.929A7.46 7.46 0 0 1 8.5 15.999c0-.867.241-1.339.524-1.546.268-.197.855-.357 2.058.087.435.161.938.408 1.514.766l.418.26.43-.242c.519-.292.916-.188 1.22.025.133.093.248.21.335.329zm1.471 7.806 6.077-6.697-1.234-1.12-2.443 2.692.006-.845-1.667-.012-.019 2.708-2.069 2.281c-.157-.851-.25-1.765-.22-2.622.053-1.462.637-2.664 1.502-3.14.358-.198.991-.275 1.491-.187l.742.129.204-.724c.107-.377.389-.782.831-1.142a3.97 3.97 0 0 1 1.528-.763c.668-.163 1.237-.078 1.612.18.328.225.657.685.688 1.628v.015l.003.133a7.468 7.468 0 0 1-7.029 7.485z" />
		</symbol>

		<symbol id="icon-basket" viewBox="0 0 30 32">
			<path fill="#e8e8e2" style="fill:var(--color1, #e8e8e2)"
				d="M3.2 1.694a1.694 1.694 0 1 0 0 3.388h2.067l.517 2.07.017.071 2.301 9.199-1.513 1.511c-2.135 2.135-.623 5.784 2.395 5.784H23.53a1.694 1.694 0 1 0 0-3.388H8.984l1.694-1.694h11.157a1.693 1.693 0 0 0 1.514-.936l5.082-10.165a1.693 1.693 0 0 0-1.515-2.451H8.755L8.23 2.977a1.694 1.694 0 0 0-1.643-1.283H3.199zm22.024 26.259a2.544 2.544 0 0 1-2.541 2.541 2.544 2.544 0 0 1-2.541-2.541 2.544 2.544 0 0 1 2.541-2.541 2.544 2.544 0 0 1 2.541 2.541zM9.13 30.494a2.544 2.544 0 0 0 2.541-2.541 2.544 2.544 0 0 0-2.541-2.541 2.544 2.544 0 0 0-2.541 2.541 2.544 2.544 0 0 0 2.541 2.541z" />
		</symbol>

		<symbol id="icon-organic-food" viewBox="0 0 32 32">
			<path fill="#fdc152" style="fill:var(--color1, #fdc152)"
				d="M32 16c0 8.837-7.163 16-16 16S0 24.837 0 16 7.163 0 16 0s16 7.163 16 16z" />
			<path fill="#010101" style="fill:var(--color2, #010101)"
				d="M25.174 17.182c.104-.813.731-1.233 1.538-1.13s1.308.668 1.204 1.48c-.104.813-.731 1.233-1.538 1.13s-1.308-.668-1.204-1.481zm.437.056c-.065.508.303.823.836.891.538.069.968-.145 1.033-.652s-.297-.823-.836-.891c-.533-.068-.968.145-1.033.652zM27.137 20.516a1.724 1.724 0 0 1-.093.217l-.478-.169.003-.01c.255-.458.065-.966-.461-1.152l-1.26-.446.179-.507 2.466.873-.179.507-.463-.164-.003.01c.263.24.403.518.289.841zM25.819 22.819l-.284.457-2.07-1.286c-.639-.397-.682-.96-.29-1.59.397-.639.951-.784 1.355-.599l-.286.461c-.223-.078-.468-.013-.692.348-.238.383-.185.687.215.935l.27.167.005-.009c-.092-.22-.131-.527.088-.879.346-.557.992-.734 1.692-.299.705.438.828 1.093.482 1.65-.219.352-.511.454-.741.474l-.005.009.261.162zm-1.369-1.676c-.23.37-.124.743.346 1.035s.851.221 1.081-.149c.248-.4.075-.791-.338-1.048-.409-.254-.84-.238-1.089.162zM23.459 24.426c.131.137.311.164.571-.083.312-.296.335-.502.121-.765l.379-.36c.327.381.365.889-.207 1.433-.419.399-.883.535-1.363.031l-.857-.902c-.127-.134-.224-.176-.362-.016l-.176-.186a.8.8 0 0 1 .188-.256c.208-.198.375-.215.588-.065l.007-.007c-.04-.28.066-.6.359-.878.386-.367.835-.37 1.138-.051.395.416.21.838-.176 1.383-.24.334-.383.541-.21.723zm-.544-1.666c-.323.307-.394.678-.101.986l.272.286c.021-.104.131-.294.277-.504.256-.377.309-.604.125-.797-.166-.174-.361-.172-.573.029zM21.582 26.621c-.427.233-.899.171-1.186-.355l-.867-1.586.476-.26.793 1.451c.169.31.408.436.731.26.364-.199.477-.547.29-.888l-.764-1.397.472-.258 1.255 2.296-.472.258-.162-.297-.009.005c-.023.246-.163.556-.558.772zM19.932 27.718c.141-.046.319.004.376.18s-.059.315-.2.361c-.151.049-.322.002-.379-.173s.053-.319.204-.368zm.117-.501-.511.166-.808-2.489.511-.166.808 2.489zM16.83 26.935c.054.261.263.56.72.502.523-.067.689-.542.627-1.03s-.338-.907-.866-.839c-.457.058-.584.395-.568.687l-.533.068c-.036-.604.37-1.105 1.045-1.192.777-.099 1.351.395 1.455 1.208s-.327 1.436-1.099 1.534c-.675.086-1.172-.289-1.314-.87l.533-.068zM11.643 27.731c.328.118.466.124.554-.16l.085-.274-.459-.143.131-.42.459.143.648-2.077.518.162-.648 2.077.357.111-.131.42-.357-.111-.099.318c-.165.528-.447.643-.858.515a1.86 1.86 0 0 1-.331-.141l.131-.42zM11.604 24.07c.717.396.878 1.133.484 1.846s-1.103.971-1.82.575c-.717-.396-.878-1.133-.484-1.846s1.103-.971 1.82-.575zm-.213.385c-.448-.247-.877-.022-1.136.449-.262.475-.222.954.226 1.201s.874.026 1.136-.449c.26-.471.222-.954-.226-1.201z" />
			<path fill="#010101" style="fill:var(--color2, #010101)"
				d="M9.701 22.674c.594.564.562 1.318.001 1.909s-1.312.66-1.906.096c-.594-.564-.562-1.318-.001-1.909s1.312-.66 1.906-.096zm-.303.32c-.371-.353-.843-.243-1.213.147-.374.393-.456.866-.085 1.219s.839.247 1.213-.147c.37-.39.456-.866.085-1.219z" />
			<path fill="#010101" style="fill:var(--color2, #010101)"
				d="m4.684 22.229-.277-.461 3.138-1.885.277.461-.259.156.005.009a.978.978 0 0 1 .736.49c.345.575.153 1.27-.584 1.713s-1.441.286-1.786-.289c-.208-.347-.178-.664-.078-.885l-.005-.009-1.168.701zm3.196-1.084c-.227-.377-.678-.423-1.174-.125-.5.301-.668.718-.441 1.095.243.404.74.397 1.179.134s.678-.7.436-1.104zM6.849 16.375c.032.819-.517 1.337-1.331 1.368s-1.401-.443-1.432-1.262.517-1.337 1.331-1.368c.813-.031 1.401.443 1.432 1.261zm-.44.017c-.02-.512-.434-.762-.971-.741-.542.021-.931.302-.911.814s.429.762.971.741c.537-.021.931-.302.911-.814zM4.369 13.36c.016-.091.033-.155.057-.229l.499.089-.002.01c-.177.494.093.963.642 1.062l1.315.235-.095.529-2.575-.461.095-.529.484.087.002-.01c-.298-.194-.482-.445-.422-.783zM5.287 10.885l.206-.497 2.252.933c.695.288.828.836.544 1.522-.288.695-.811.928-1.239.811l.208-.501c.232.041.464-.063.626-.455.172-.416.071-.707-.364-.888l-.293-.121-.004.009c.127.202.215.499.056.882-.251.605-.86.885-1.621.57-.766-.317-.995-.944-.744-1.549.159-.383.431-.531.654-.588l.004-.009-.284-.118zm1.623 1.432c.167-.402.002-.753-.509-.965s-.876-.08-1.042.322c-.18.435.054.793.503.979.445.184.868.099 1.048-.336zM7.356 8.912c-.151-.115-.333-.112-.55.173-.261.342-.251.549.003.774l-.316.415c-.384-.324-.502-.82-.024-1.447.351-.46.786-.669 1.34-.247l.99.754c.147.112.249.138.36-.041l.204.155a.817.817 0 0 1-.144.283c-.174.228-.336.272-.571.158l-.006.008c.084.27.03.602-.215.924-.323.424-.766.498-1.116.232-.456-.347-.341-.794-.046-1.393.184-.368.292-.595.092-.747zm.802 1.558c.27-.354.281-.732-.057-.99l-.314-.239c-.004.107-.082.311-.193.541-.192.413-.208.646.003.807.191.146.384.112.561-.12zM8.821 6.462c.383-.3.859-.316 1.228.155l1.116 1.422-.427.335-1.021-1.301c-.218-.278-.474-.364-.764-.136-.326.256-.381.618-.141.924l.983 1.253-.423.332-1.615-2.058.423-.332.209.266.008-.006c-.018-.246.069-.575.424-.853zM10.294 5.089c-.132.068-.315.048-.4-.116s.007-.321.139-.389c.141-.073.318-.055.402.109s0 .323-.141.396zm-.034.514.477-.247 1.204 2.323-.477.247-1.204-2.323zM13.485 5.351c-.096-.249-.351-.51-.792-.377-.505.151-.592.648-.451 1.119s.481.839.991.686c.441-.132.512-.485.448-.77l.515-.154c.134.591-.184 1.151-.837 1.346-.75.225-1.398-.169-1.633-.954s.089-1.47.834-1.693c.652-.195 1.204.094 1.438.643l-.515.154zM18.451 3.719c-.343-.063-.48-.046-.521.248l-.04.284.477.067-.061.436-.477-.067-.301 2.155-.538-.075.301-2.155-.37-.052.061-.436.37.052.046-.33c.076-.548.337-.708.763-.648.132.018.246.05.35.085l-.061.436zM19.096 7.321c-.772-.273-1.051-.975-.779-1.742s.929-1.137 1.702-.864c.772.273 1.051.975.779 1.742s-.929 1.137-1.702.864zm.147-.415c.483.171.869-.122 1.048-.628.181-.512.063-.977-.419-1.148s-.867.117-1.048.628c-.179.507-.063.977.419 1.148z" />
			<path fill="#010101" style="fill:var(--color2, #010101)"
				d="M21.17 8.361c-.678-.46-.77-1.209-.313-1.883s1.187-.865 1.865-.405c.678.46.77 1.209.313 1.883s-1.187.865-1.865.405zm.247-.364c.424.287.871.102 1.173-.343.305-.449.308-.929-.115-1.216s-.868-.106-1.173.343c-.302.445-.308.929.115 1.216zM26.247 8.03l.347.411-2.796 2.363-.347-.411.231-.195-.007-.008a.979.979 0 0 1-.805-.365c-.433-.512-.355-1.229.302-1.784s1.376-.513 1.809-.001c.261.309.282.627.218.861l.007.008 1.04-.879zm-2.98 1.582c.284.336.737.309 1.179-.065.446-.377.544-.815.26-1.152-.304-.36-.794-.274-1.186.057s-.558.8-.253 1.16zM17.6 14.72c-2.88.64-3.552 2.614-4.218 4.269l.605.211.304-.736c.154.054.314.096.429.096 3.52 0 4.48-5.44 4.48-5.44-.32.64-2.56.72-4.16 1.04s-2.24 1.68-2.24 2.32c0 .64.56 1.2.56 1.2 1.04-2.96 4.24-2.96 4.24-2.96z" />
		</symbol>

		<symbol id="icon-ion_close-sharp" viewBox="0 0 32 32">
			<path
				d="M25 9.093l-2.093-2.093-6.907 6.907-6.907-6.907-2.093 2.093 6.907 6.907-6.907 6.907 2.093 2.093 6.907-6.907 6.907 6.907 2.093-2.093-6.907-6.907 6.907-6.907z">
			</path>
		</symbol>

		<symbol id="icon-cart" viewBox="0 0 38 38">
			<rect width="38" height="38" rx="19" fill="currentColor" />
			<path
				d="M14.0984 12.7C13.9128 12.7 13.7347 12.7737 13.6035 12.905C13.4722 13.0363 13.3984 13.2143 13.3984 13.4C13.3984 13.5856 13.4722 13.7637 13.6035 13.8949C13.7347 14.0262 13.9128 14.1 14.0984 14.1H14.9524L15.1659 14.9554C15.1681 14.9652 15.1704 14.975 15.1729 14.9848L16.1235 18.7858L15.4984 19.4102C14.6164 20.2922 15.2408 21.8 16.4882 21.8H22.4984C22.6841 21.8 22.8621 21.7262 22.9934 21.5949C23.1247 21.4636 23.1984 21.2856 23.1984 21.1C23.1984 20.9143 23.1247 20.7363 22.9934 20.605C22.8621 20.4737 22.6841 20.4 22.4984 20.4H16.4882L17.1882 19.7H21.7984C21.9284 19.6999 22.0558 19.6636 22.1663 19.5953C22.2768 19.5269 22.3661 19.4291 22.4242 19.3128L24.5242 15.1129C24.5776 15.0062 24.6027 14.8876 24.5974 14.7685C24.592 14.6493 24.5563 14.5335 24.4936 14.432C24.4309 14.3306 24.3433 14.2468 24.2391 14.1887C24.135 14.1306 24.0177 14.1 23.8984 14.1H16.3944L16.1774 13.2299C16.1395 13.0785 16.0521 12.9441 15.9291 12.8481C15.8061 12.7521 15.6545 12.7 15.4984 12.7H14.0984ZM23.1984 23.5499C23.1984 23.8284 23.0878 24.0955 22.8909 24.2924C22.694 24.4893 22.4269 24.5999 22.1484 24.5999C21.87 24.5999 21.6029 24.4893 21.406 24.2924C21.2091 24.0955 21.0984 23.8284 21.0984 23.5499C21.0984 23.2715 21.2091 23.0044 21.406 22.8075C21.6029 22.6106 21.87 22.5 22.1484 22.5C22.4269 22.5 22.694 22.6106 22.8909 22.8075C23.0878 23.0044 23.1984 23.2715 23.1984 23.5499ZM16.5484 24.5999C16.8269 24.5999 17.094 24.4893 17.2909 24.2924C17.4878 24.0955 17.5984 23.8284 17.5984 23.5499C17.5984 23.2715 17.4878 23.0044 17.2909 22.8075C17.094 22.6106 16.8269 22.5 16.5484 22.5C16.27 22.5 16.0029 22.6106 15.806 22.8075C15.6091 23.0044 15.4984 23.2715 15.4984 23.5499C15.4984 23.8284 15.6091 24.0955 15.806 24.2924C16.0029 24.4893 16.27 24.5999 16.5484 24.5999Z"
				fill="#E8E8E2" />
		</symbol>

		<symbol id="icon-logo" viewBox="0 0 196 32">
			<circle cx="16" cy="16" r="16" className="logo-circle" />
			<path
				d="M16.93 8.88995C16.6405 8.45006 16.2513 8.08462 15.7941 7.82328C14.5375 7.10245 12.9183 7.22912 11.4241 8.06578C8.64998 9.61995 6.83331 12.5416 6.83331 15.9999C6.83331 20.6166 10.175 24.3441 14.5391 25.0499C15.0158 25.1266 15.5033 25.1666 16 25.1666C17.2109 25.1709 18.4107 24.9343 19.5294 24.4708C20.6481 24.0072 21.6635 23.3258 22.5165 22.4662C23.3694 21.6066 24.043 20.586 24.498 19.4638C24.9529 18.3415 25.1802 17.14 25.1666 15.9291C25.1475 14.3191 24.5016 12.3433 23.4808 10.7641C22.4641 9.19078 20.9008 7.75745 18.9583 7.77578C18.01 7.77745 17.3625 8.29912 16.93 8.89078V8.88995ZM22.4758 12.3441C22.1278 12.2881 21.7738 12.2789 21.4233 12.3166L20.4566 10.6916L19.025 11.5416L19.7683 12.7916C19.4573 12.938 19.1602 13.1123 18.8808 13.3124C18.8759 13.2963 18.8709 13.2802 18.8658 13.2641C18.6433 12.5891 18.2133 12.0349 17.64 11.4841L17.6433 11.4674C17.7008 11.1983 17.7925 10.8508 17.93 10.5133C18.2408 9.74995 18.6016 9.44078 18.9633 9.44078H18.9725C20.0483 9.42912 21.1691 10.2549 22.0816 11.6666C22.2233 11.8858 22.355 12.1116 22.4766 12.3433L22.4758 12.3441ZM17.3416 14.8416C17.0666 14.8483 16.7841 14.8791 16.5083 14.9391C16.2834 14.5626 15.9819 14.2375 15.6233 13.9849C14.965 13.5224 14.0633 13.2933 13.0883 13.6574C12.999 13.606 12.909 13.5557 12.8183 13.5066L15.5125 10.8658L14.3458 9.67578L11.15 12.8083C10.475 12.6124 9.84415 12.5424 9.27748 12.6208C9.92959 11.3118 10.9623 10.2306 12.24 9.51912C13.3766 8.88245 14.3541 8.91745 14.9658 9.26828C15.5491 9.60245 16.0333 10.3608 15.9116 11.7158L15.8741 12.1349L16.1891 12.4141C16.8741 13.0199 17.1591 13.4116 17.2825 13.7858C17.3691 14.0483 17.3975 14.3658 17.3416 14.8416ZM15 15.6791C14.2883 16.2749 13.8108 17.1108 13.5333 18.0141L11.055 15.2933L9.82248 16.4166L13.2291 20.1566C13.225 21.1499 13.3525 22.1666 13.5375 23.0858C12.0626 22.5794 10.7834 21.6235 9.87982 20.3525C8.97625 19.0816 8.49369 17.5594 8.49998 15.9999C8.49998 15.1333 8.74081 14.6608 9.02415 14.4541C9.29165 14.2574 9.87915 14.0966 11.0825 14.5408C11.5175 14.7016 12.0208 14.9483 12.5966 15.3066L13.015 15.5666L13.445 15.3249C13.9641 15.0333 14.3608 15.1366 14.665 15.3499C14.7983 15.4433 14.9125 15.5599 15 15.6791ZM16.4708 23.4849L22.5475 16.7874L21.3133 15.6674L18.87 18.3599L18.8758 17.5149L17.2091 17.5033L17.19 20.2116L15.1208 22.4924C14.9641 21.6416 14.8708 20.7274 14.9008 19.8699C14.9541 18.4074 15.5383 17.2058 16.4025 16.7299C16.7608 16.5324 17.3933 16.4549 17.8933 16.5433L18.635 16.6724L18.8391 15.9483C18.9458 15.5708 19.2283 15.1666 19.67 14.8066C20.1181 14.4444 20.6396 14.184 21.1983 14.0433C21.8658 13.8799 22.435 13.9649 22.81 14.2233C23.1375 14.4483 23.4666 14.9083 23.4975 15.8516V15.8666L23.5 15.9999C23.5084 17.91 22.7843 19.7506 21.4767 21.1429C20.1691 22.5353 18.3776 23.3734 16.4708 23.4849Z"
				fill="#E8E8E2" />
			<path
				d="M40 20.788C41.176 20.644 41.824 20.116 41.824 19.18V9.41202C41.824 8.47602 41.176 7.92402 40 7.80402V6.84402H52.192C52.408 6.84402 52.504 6.91602 52.528 7.08402C52.6 7.80402 52.648 8.52402 53.032 10.276H52.432C51.592 8.81202 50.872 8.04402 49.456 8.04402H47.416C46.336 8.04402 45.88 8.64402 45.88 9.60402V12.124C45.88 13.084 46.336 13.612 47.416 13.612H48.376C50.32 13.612 50.68 13.156 50.872 12.076H51.4V16.348H50.872C50.68 15.34 50.32 14.836 48.376 14.836H47.416C46.336 14.836 45.88 15.364 45.88 16.324V19.18C45.88 20.116 46.528 20.644 47.944 20.788V21.748H40V20.788Z"
				fill="#010101" />
			<path
				d="M59.0892 21.892C56.1372 21.892 53.1372 20.116 53.1372 16.228C53.1372 12.364 56.1372 10.708 59.0172 10.708C61.9932 10.708 64.9692 12.484 64.9692 16.372C64.9692 20.236 61.9932 21.892 59.0892 21.892ZM56.9772 15.172C56.9772 18.148 57.9612 20.788 59.4972 20.788C60.4332 20.788 61.1292 19.852 61.1292 17.38C61.1292 14.428 60.1932 11.788 58.6092 11.788C57.6492 11.788 56.9772 12.748 56.9772 15.172Z"
				fill="#010101" />
			<path
				d="M71.992 21.892C69.04 21.892 66.04 20.116 66.04 16.228C66.04 12.364 69.04 10.708 71.92 10.708C74.896 10.708 77.872 12.484 77.872 16.372C77.872 20.236 74.896 21.892 71.992 21.892ZM69.88 15.172C69.88 18.148 70.864 20.788 72.4 20.788C73.336 20.788 74.032 19.852 74.032 17.38C74.032 14.428 73.096 11.788 71.512 11.788C70.552 11.788 69.88 12.748 69.88 15.172Z"
				fill="#010101" />
			<path
				d="M83.5268 21.892C81.2708 21.892 78.9428 20.044 78.9428 16.492C78.9428 12.676 81.5588 10.708 84.1028 10.708C86.7428 10.708 87.4388 12.772 87.4388 10.348V8.90802C87.4388 7.78002 86.8148 7.58802 85.9268 7.66002V6.72402L89.8388 6.07602C90.6548 5.95602 91.0388 6.31602 91.0388 7.03602V19.3C91.0388 20.092 91.3508 20.62 92.0468 20.332V20.86C91.7108 21.676 90.8468 21.892 90.1028 21.892C89.2868 21.892 88.2548 21.628 87.9668 20.908C87.7748 20.452 87.5588 20.212 87.1988 20.212C86.7188 20.212 85.7588 21.892 83.5268 21.892ZM82.8068 15.244C82.8068 17.62 83.8628 19.948 85.3988 19.948C86.3348 19.948 87.4388 19.276 87.4388 17.26V16.132C87.4388 13.012 85.9748 11.788 84.7748 11.788C83.5508 11.788 82.8068 13.3 82.8068 15.244Z"
				fill="#010101" />
			<path
				d="M97.0844 20.788C98.2604 20.644 98.9084 20.116 98.9084 19.18V9.43602C98.9084 8.47602 98.2604 7.92402 97.0844 7.80402V6.84402H104.5C109.204 6.84402 111.532 7.97202 111.532 10.396C111.532 11.764 110.74 13.108 108.004 13.54C111.076 13.972 112.396 15.412 112.396 17.452C112.396 20.236 109.924 21.748 106.564 21.748C104.644 21.748 100.564 21.148 97.0844 21.748V20.788ZM102.964 19.54C102.964 20.164 103.348 20.452 104.044 20.452H104.884C106.708 20.452 108.076 19.756 108.076 17.428C108.076 15.172 106.684 14.188 104.044 14.188C103.42 14.188 102.964 14.668 102.964 15.628V19.54ZM102.964 11.596C102.964 12.556 103.42 13.036 104.5 13.036H105.124C106.78 13.036 107.212 11.74 107.212 10.636C107.212 8.95602 106.3 8.02002 104.74 8.02002H104.5C103.42 8.02002 102.964 8.52402 102.964 9.48402V11.596Z"
				fill="#010101" />
			<path
				d="M119.431 21.892C116.479 21.892 113.479 20.116 113.479 16.228C113.479 12.364 116.479 10.708 119.359 10.708C122.335 10.708 125.311 12.484 125.311 16.372C125.311 20.236 122.335 21.892 119.431 21.892ZM117.319 15.172C117.319 18.148 118.303 20.788 119.839 20.788C120.775 20.788 121.471 19.852 121.471 17.38C121.471 14.428 120.535 11.788 118.951 11.788C117.991 11.788 117.319 12.748 117.319 15.172Z"
				fill="#010101" />
			<path
				d="M130.528 21.892C128.848 21.892 127.024 21.196 127.024 17.428V13.612C127.024 12.508 126.4 12.316 125.512 12.34V11.404L129.424 10.756C130.24 10.636 130.624 10.996 130.624 11.716V16.852C130.624 18.532 131.32 19.732 132.616 19.732C133.936 19.732 134.608 18.532 134.608 16.852V13.612C134.608 12.508 133.984 12.316 133.096 12.34V11.404L136.984 10.756C137.824 10.636 138.208 10.996 138.208 11.716V19.3C138.208 20.092 138.52 20.62 139.216 20.332V20.86C138.88 21.676 138.016 21.892 137.2 21.892C135.472 21.892 134.992 20.812 134.872 20.284C134.8 19.948 134.608 19.78 134.44 19.78C134.272 19.78 134.152 19.924 134.032 20.092C133.36 21.004 132.424 21.892 130.528 21.892Z"
				fill="#010101" />
			<path
				d="M144.84 21.868C142.632 21.868 141.288 20.644 141.288 18.316V13.06C141.288 12.22 141.096 12.052 140.544 12.052H139.464V11.284C141.456 10.828 142.416 9.91602 143.232 8.59602C143.424 8.28402 143.592 8.18802 143.904 8.18802H144.336C144.696 8.18802 144.912 8.40402 144.912 8.76402L144.888 10.252C144.888 10.78 145.152 10.924 146.376 10.924H147.936V12.196L146.376 12.1C145.152 12.028 144.888 12.244 144.888 13.108V18.196C144.888 19.516 145.032 20.404 146.208 20.404C146.52 20.404 147 20.356 147.456 20.02C147.768 20.404 147.888 20.74 147.576 21.028C147.024 21.508 146.04 21.868 144.84 21.868Z"
				fill="#010101" />
			<path
				d="M148.904 20.812C150.008 20.74 150.416 20.38 150.416 19.084V13.588C150.416 12.46 149.792 12.268 148.928 12.34V11.404L152.816 10.756C153.632 10.636 154.016 10.996 154.016 11.716V19.084C154.016 20.38 154.424 20.74 155.504 20.812V21.748H148.904V20.812ZM149.84 7.73202C149.84 6.58002 150.8 5.69202 151.928 5.69202C153.032 5.69202 153.968 6.58002 153.968 7.73202C153.968 8.88402 153.032 9.77202 151.928 9.77202C150.8 9.77202 149.84 8.88402 149.84 7.73202Z"
				fill="#010101" />
			<path
				d="M162.671 25.396C164.039 25.3 164.447 24.94 164.447 23.74V21.172C164.447 20.74 164.231 20.596 164.015 20.596C163.895 20.596 163.775 20.644 163.679 20.74C163.199 21.22 162.167 21.892 160.655 21.892C158.183 21.892 155.903 20.068 155.903 16.54C155.903 12.7 158.567 10.708 161.327 10.708C163.727 10.708 164.735 12.172 165.623 12.172C166.463 12.172 166.799 10.732 167.471 10.732C167.903 10.732 168.047 10.972 168.047 11.308V23.74C168.047 24.94 168.455 25.3 169.535 25.396V26.308H162.671V25.396ZM159.767 15.22C159.767 17.596 160.775 19.948 162.455 19.948C163.367 19.948 164.423 19.276 164.447 16.588C164.423 12.988 162.935 11.788 161.735 11.788C160.439 11.788 159.767 13.3 159.767 15.22Z"
				fill="#010101" />
			<path
				d="M174.194 21.892C172.514 21.892 170.69 21.196 170.69 17.428V13.612C170.69 12.508 170.066 12.316 169.178 12.34V11.404L173.09 10.756C173.906 10.636 174.29 10.996 174.29 11.716V16.852C174.29 18.532 174.986 19.732 176.282 19.732C177.602 19.732 178.274 18.532 178.274 16.852V13.612C178.274 12.508 177.65 12.316 176.762 12.34V11.404L180.65 10.756C181.49 10.636 181.874 10.996 181.874 11.716V19.3C181.874 20.092 182.186 20.62 182.882 20.332V20.86C182.546 21.676 181.682 21.892 180.866 21.892C179.138 21.892 178.658 20.812 178.538 20.284C178.466 19.948 178.274 19.78 178.106 19.78C177.938 19.78 177.818 19.924 177.698 20.092C177.026 21.004 176.09 21.892 174.194 21.892Z"
				fill="#010101" />
			<path
				d="M189.818 21.892C186.818 21.892 183.842 20.164 183.842 16.396C183.842 12.46 187.058 10.708 190.034 10.708C192.578 10.708 194.642 11.98 194.642 14.092C194.642 16.252 192.554 16.372 190.442 16.54L188.57 16.684C188.162 16.708 187.946 16.9 187.946 17.452C187.946 19.228 189.866 20.02 191.45 20.02C192.29 20.02 193.442 19.78 194.306 18.796L195.026 19.444C194.57 20.38 192.626 21.892 189.818 21.892ZM187.778 14.716C187.778 15.412 187.946 15.772 188.57 15.748L189.434 15.652C191.09 15.484 191.426 15.052 191.426 14.116C191.426 12.964 190.946 11.812 189.698 11.812C188.138 11.812 187.778 13.564 187.778 14.716Z"
				fill="#010101" />

		</symbol>
	</defs>
</svg>